<svg width="528" height="204" viewBox="0 0 528 204" fill="none" xmlns="http://www.w3.org/2000/svg">
<path fill-rule="evenodd" clip-rule="evenodd" d="M63.936 53.28V78.336H82.368C87.168 78.336 91.104 77.28 94.176 75.168C97.248 72.864 98.784 69.408 98.784 64.8C98.784 60.96 97.152 58.08 93.888 56.16C90.624 54.24 86.304 53.28 80.928 53.28H63.936ZM63.936 122.4V150.048H84.384C89.76 150.048 94.08 148.896 97.344 146.592C100.8 144.096 102.528 140.544 102.528 135.936C102.528 133.248 101.76 131.04 100.224 129.312C98.88 127.584 97.152 126.24 95.04 125.28C92.928 124.128 90.624 123.36 88.128 122.976C85.824 122.592 83.616 122.4 81.504 122.4H63.936ZM133.344 97.92C138.144 99.072 142.848 100.992 147.456 103.68C152.064 106.176 156.192 109.44 159.84 113.472C163.488 117.312 166.368 121.824 168.48 127.008C170.592 132.192 171.648 137.952 171.648 144.288C171.648 155.424 169.344 164.832 164.736 172.512C160.32 180 154.368 186.144 146.88 190.944C139.584 195.552 131.136 198.912 121.536 201.024C112.128 202.944 102.432 203.904 92.448 203.904H0V0H83.808C92.064 0 100.8 0.671997 110.016 2.01599C119.424 3.16799 128.064 5.66399 135.936 9.504C143.808 13.152 150.336 18.624 155.52 25.92C160.704 33.024 163.296 42.432 163.296 54.144C163.296 65.088 160.512 74.112 154.944 81.216C149.568 88.32 142.368 93.6 133.344 97.056V97.92ZM265.968 98.3954C251.605 133.271 210.395 147 202 147C229.474 133.271 225.036 98.3954 225.036 98.3954H202L245.5 57L289 98.3954H265.968ZM329 0V203.904H410.792C425.96 203.904 440.552 201.888 454.568 197.856C468.584 193.824 480.968 187.68 491.72 179.424C502.472 170.976 511.016 160.224 517.352 147.168C523.88 134.112 527.144 118.656 527.144 100.8C527.144 81.216 523.784 64.992 517.064 52.128C510.344 39.264 501.32 28.992 489.992 21.312C478.856 13.44 465.896 7.96799 451.112 4.89599C436.52 1.632 421.16 0 405.032 0H329ZM394.952 145.152V58.176H410.216C424.616 58.176 436.136 61.92 444.776 69.408C453.416 76.704 457.736 86.976 457.736 100.224C457.736 116.16 453.416 127.68 444.776 134.784C436.136 141.696 423.752 145.152 407.624 145.152H394.952Z" fill="black"/>
</svg>
