<svg width="289" height="204" viewBox="0 0 289 204" fill="none" xmlns="http://www.w3.org/2000/svg">
<path fill-rule="evenodd" clip-rule="evenodd" d="M63.936 78.432V53.376H80.928C86.304 53.376 90.624 54.336 93.888 56.256C97.152 58.176 98.784 61.056 98.784 64.896C98.784 69.504 97.248 72.96 94.176 75.264C91.104 77.376 87.168 78.432 82.368 78.432H63.936ZM63.936 150.144V122.496H81.504C83.616 122.496 85.824 122.688 88.128 123.072C90.624 123.456 92.928 124.224 95.04 125.376C97.152 126.336 98.88 127.68 100.224 129.408C101.76 131.136 102.528 133.344 102.528 136.032C102.528 140.64 100.8 144.192 97.344 146.688C94.08 148.992 89.76 150.144 84.384 150.144H63.936ZM147.456 103.776C142.848 101.088 138.144 99.168 133.344 98.016V97.152C142.368 93.696 149.568 88.416 154.944 81.312C160.512 74.208 163.296 65.184 163.296 54.24C163.296 42.528 160.704 33.12 155.52 26.016C150.336 18.72 143.808 13.248 135.936 9.60001C128.064 5.76 119.424 3.264 110.016 2.112C100.8 0.768005 92.064 0.0960083 83.808 0.0960083H0V204H92.448C102.432 204 112.128 203.04 121.536 201.12C131.136 199.008 139.584 195.648 146.88 191.04C154.368 186.24 160.32 180.096 164.736 172.608C169.344 164.928 171.648 155.52 171.648 144.384C171.648 138.048 170.592 132.288 168.48 127.104C166.368 121.92 163.488 117.408 159.84 113.568C156.192 109.536 152.064 106.272 147.456 103.776ZM202 147C210.395 147 251.605 133.271 265.968 98.3954H289L245.5 57L202 98.3954H225.036C225.036 98.3954 229.474 133.271 202 147Z" fill="black"/>
</svg>
