<svg width="600" height="600" fill="none" xmlns="http://www.w3.org/2000/svg"><path fill="#00F" d="M0 0h600v600H0z"/><path fill-rule="evenodd" clip-rule="evenodd" d="M236.7 287.8v-24.5h16.7c5.3 0 9.5.9 12.7 2.8a9.2 9.2 0 0 1 4.8 8.5c0 4.5-1.5 7.9-4.5 10.1a20 20 0 0 1-11.6 3.1h-18Zm0 70.4V331H254c2.1 0 4.3.1 6.5.5 2.5.4 4.7 1.2 6.8 2.3 2 1 3.8 2.2 5.1 4a9.4 9.4 0 0 1 2.3 6.4c0 4.6-1.7 8-5.1 10.5a21.6 21.6 0 0 1-12.7 3.4h-20Zm82-45.5a51 51 0 0 0-14-5.7v-.8a47 47 0 0 0 21.3-15.5c5.4-7 8.2-15.9 8.2-26.6a46 46 0 0 0-7.7-27.7 48 48 0 0 0-19.2-16A79.6 79.6 0 0 0 282 213c-9-1.3-17.6-2-25.7-2H174v200h90.7c9.8 0 19.3-1 28.5-2.8 9.4-2.1 17.7-5.4 24.9-10a53.6 53.6 0 0 0 17.5-18 53 53 0 0 0 6.8-27.7 44.5 44.5 0 0 0-23.8-39.8Zm62.1 42.4c8.3 0 48.7-13.5 62.8-47.7h22.6l-42.7-40.6-42.7 40.6h22.6s4.4 34.2-22.6 47.7Z" fill="#fff"/></svg>