<svg width="400" height="400" fill="none" xmlns="http://www.w3.org/2000/svg"><circle cx="200" cy="200" r="200" fill="#00F"/><path fill-rule="evenodd" clip-rule="evenodd" d="M153 187.8v-16.5h11.3c3.5 0 6.4.6 8.5 1.9a6.2 6.2 0 0 1 3.3 5.7c0 3-1 5.3-3 6.8-2.1 1.4-4.7 2-7.9 2h-12.1Zm0 47.3v-18.3h11.7c1.4 0 2.8.2 4.3.4 1.7.3 3.2.8 4.6 1.5a9 9 0 0 1 3.4 2.7c1 1.1 1.5 2.6 1.5 4.4 0 3-1.1 5.4-3.4 7-2.1 1.5-5 2.3-8.5 2.3H153Zm55.2-30.6c-3-1.8-6.2-3-9.3-3.8v-.6c5.9-2.2 10.6-5.7 14.2-10.4a28 28 0 0 0 5.5-17.9c0-7.7-1.7-13.9-5.1-18.6a32.3 32.3 0 0 0-13-10.8 53.5 53.5 0 0 0-17-5 120 120 0 0 0-17.3-1.3h-55.3v134.5h61c6.6 0 13-.6 19.2-2a51.9 51.9 0 0 0 16.7-6.6 36 36 0 0 0 11.8-12.1c3-5 4.5-11.3 4.5-18.6a28.3 28.3 0 0 0-7.8-20.3 30.6 30.6 0 0 0-8.1-6.5ZM250 233c5.5 0 32.7-9 42.2-32h15.1l-28.6-27.3L250 201h15.2s2.9 23-15.2 32Z" fill="#fff"/></svg>